<svg xmlns="http://www.w3.org/2000/svg" xmlns:xlink="http://www.w3.org/1999/xlink" version="1.1" x="0" y="0" viewBox="0 0 100 125" style="enable-background:new 0 0 100 100;" xml:space="preserve" fill="#41adff"><path d="M93,76.904c-2.929,0-5.641-1.199-7.636-3.377c-0.794-0.866-1.929-1.363-3.114-1.363s-2.32,0.497-3.114,1.363  c-1.996,2.178-4.708,3.377-7.636,3.377s-5.641-1.199-7.636-3.377c-0.794-0.866-1.929-1.363-3.114-1.363s-2.32,0.497-3.114,1.363  c-1.996,2.178-4.708,3.377-7.636,3.377s-5.641-1.199-7.636-3.377c-0.794-0.866-1.929-1.363-3.114-1.363s-2.32,0.497-3.114,1.363  c-1.996,2.178-4.708,3.377-7.636,3.377s-5.641-1.199-7.636-3.377c-0.794-0.866-1.929-1.363-3.114-1.363s-2.32,0.497-3.114,1.363  C12.641,75.705,9.929,76.904,7,76.904c-1.104,0-2,0.896-2,2s0.896,2,2,2c4.005,0,7.863-1.704,10.585-4.675  c0.099-0.107,0.23-0.107,0.329,0c2.722,2.971,6.581,4.675,10.585,4.675s7.863-1.704,10.585-4.675c0.099-0.107,0.23-0.107,0.329,0  C42.137,79.2,45.995,80.904,50,80.904s7.863-1.704,10.585-4.675c0.099-0.107,0.23-0.107,0.329,0  c2.722,2.971,6.581,4.675,10.585,4.675s7.863-1.704,10.585-4.675c0.099-0.107,0.23-0.107,0.329,0  C85.137,79.2,88.995,80.904,93,80.904c1.104,0,2-0.896,2-2S94.104,76.904,93,76.904z"/><path d="M72.18,52.46c0,5.211,4.235,9.45,9.44,9.45c5.21,0,9.45-4.239,9.45-9.45c0-5.205-4.239-9.44-9.45-9.44  C76.415,43.02,72.18,47.255,72.18,52.46z"/><path d="M48.074,49.677l-28.47,17.88c-0.024,0.015-0.038,0.038-0.058,0.056c-0.02,0.017-0.043,0.028-0.061,0.049  c-0.004,0.005-0.005,0.012-0.009,0.017c-0.023,0.03-0.036,0.063-0.052,0.097c-0.012,0.026-0.027,0.051-0.035,0.078  c-0.008,0.031-0.007,0.063-0.009,0.096c-0.002,0.032-0.007,0.062-0.003,0.094c0.004,0.029,0.016,0.057,0.025,0.086  c0.011,0.034,0.019,0.067,0.037,0.098c0.004,0.006,0.004,0.013,0.007,0.019c0.015,0.024,0.038,0.039,0.057,0.06  c0.017,0.019,0.028,0.043,0.048,0.06c0.01,0.008,0.02,0.014,0.03,0.022c0.001,0.001,0.002,0.002,0.003,0.002  c2.355,1.934,5.32,3,8.355,3c3.642,0,7.144-1.523,9.607-4.18c0.66-0.711,1.937-0.713,2.598,0.002  c2.521,2.694,5.935,4.178,9.615,4.178c3.642,0,7.144-1.523,9.607-4.18c0.33-0.356,0.805-0.56,1.303-0.56h0  c0.498,0,0.973,0.204,1.304,0.561c2.51,2.695,5.925,4.179,9.616,4.179c2.073,0,4.042-0.462,5.855-1.374  c0.005-0.003,0.008-0.007,0.013-0.01c0.004-0.002,0.008-0.001,0.012-0.003c0.027-0.015,0.044-0.039,0.067-0.059  c0.024-0.021,0.052-0.038,0.071-0.063c0.021-0.027,0.034-0.057,0.049-0.087c0.014-0.027,0.031-0.052,0.04-0.081  c0.01-0.032,0.009-0.065,0.013-0.098c0.003-0.031,0.009-0.061,0.007-0.092c-0.003-0.034-0.017-0.065-0.027-0.099  c-0.008-0.027-0.009-0.054-0.022-0.08c-0.002-0.004-0.006-0.007-0.008-0.011c-0.002-0.005-0.002-0.01-0.005-0.014  c-3.705-6.442-18.755-33.599-18.899-33.859c-0.123-0.239-0.131-0.519-0.021-0.752c0.114-0.248,0.318-0.415,0.564-0.469l16.27-3.262  c3.035-0.675,5.081-3.621,4.657-6.707c-0.221-1.615-1.125-3.093-2.48-4.055c-1.377-0.978-3.042-1.331-4.695-0.995L49.531,24.5  c-2.244,0.451-4.048,1.767-5.082,3.704c-1.061,1.981-1.157,4.398-0.257,6.647l4.989,11.318  C49.738,47.453,49.266,48.958,48.074,49.677z"/><!-- Created by Maxim Kulikov from the Noun Project --></svg>